<svg width="125" height="125" viewBox="0 0 125 125" fill="none" xmlns="http://www.w3.org/2000/svg">
<rect width="124.709" height="124.709" rx="62.3545" fill="#121212"/>
<path fill-rule="evenodd" clip-rule="evenodd" d="M61.0481 53.7452C74.5597 26.7203 74.9653 25.8116 74.0978 24.487C73.1273 23.0059 70.8921 22.6514 69.9637 23.8315C69.6559 24.223 66.4263 30.4319 62.786 37.6296C59.1463 44.8274 54.8227 52.5037 53.1781 54.6875C48.3875 61.0511 43.1913 62.9368 30.4197 62.9453C25.0153 62.9493 24.1688 63.0853 23.1374 64.1169C22.0804 65.1741 22.0121 66.992 22.9889 68.0594C23.1266 68.2102 27.028 68.6057 31.6588 68.9391C38.0519 69.3994 40.4543 69.792 41.6405 70.5693C43.1975 71.59 43.2015 71.6094 42.8084 76.3303C42.4375 80.7816 42.4864 81.1059 43.6208 81.713C44.2841 82.0681 45.3394 82.1961 45.9646 81.9975C46.7815 81.7386 51.0402 73.7613 61.0481 53.7452ZM80.9085 56.1054C80.9085 53.4545 80.7014 50.9657 80.4483 50.5742C79.7798 49.541 77.5299 49.7031 76.4991 50.8587C76.011 51.4067 71.0594 60.9931 65.4956 72.1624C56.1568 90.9114 55.432 92.5853 56.0595 93.9623C56.621 95.1953 57.059 95.4229 58.5837 95.2761C60.2733 95.1128 60.6373 94.6906 62.9066 90.2616C69.4608 77.47 72.4668 73.631 77.8058 71.2344C80.8061 69.8876 82.4354 69.6128 90.6547 69.0688C99.4577 68.4862 100.122 68.3627 100.911 67.1587C101.557 66.1709 101.608 65.5991 101.128 64.7018C100.332 63.2139 99.4497 63.046 91.1485 62.8002C86.6662 62.6676 83.7359 62.3109 82.6152 61.7618C80.9188 60.9305 80.9085 60.8958 80.9085 56.1054Z" fill="url(#paint0_linear)"/>
<defs>
<linearGradient id="paint0_linear" x1="22.2983" y1="65.2364" x2="86.9517" y2="95.8506" gradientUnits="userSpaceOnUse">
<stop stop-color="#42E8FF"/>
<stop offset="1" stop-color="#42FF6B"/>
</linearGradient>
</defs>
</svg>
