<svg width="24" height="24" viewBox="0 0 24 24" fill="none" xmlns="http://www.w3.org/2000/svg">
<path d="M13 16C13 15.4477 12.5523 15 12 15C11.4477 15 11 15.4477 11 16C11 16.5523 11.4477 17 12 17C12.5523 17 13 16.5523 13 16Z" stroke="white" stroke-width="2" stroke-linecap="round" stroke-linejoin="round"/>
<path d="M6 16C6 15.4477 5.55228 15 5 15C4.44772 15 4 15.4477 4 16C4 16.5523 4.44772 17 5 17C5.55228 17 6 16.5523 6 16Z" stroke="white" stroke-width="2" stroke-linecap="round" stroke-linejoin="round"/>
<path d="M20 16C20 15.4477 19.5523 15 19 15C18.4477 15 18 15.4477 18 16C18 16.5523 18.4477 17 19 17C19.5523 17 20 16.5523 20 16Z" stroke="white" stroke-width="2" stroke-linecap="round" stroke-linejoin="round"/>
<path d="M13 9C13 8.44772 12.5523 8 12 8C11.4477 8 11 8.44772 11 9C11 9.55228 11.4477 10 12 10C12.5523 10 13 9.55228 13 9Z" stroke="white" stroke-width="2" stroke-linecap="round" stroke-linejoin="round"/>
<path d="M6 9C6 8.44772 5.55228 8 5 8C4.44772 8 4 8.44772 4 9C4 9.55228 4.44772 10 5 10C5.55228 10 6 9.55228 6 9Z" stroke="white" stroke-width="2" stroke-linecap="round" stroke-linejoin="round"/>
<path d="M20 9C20 8.44772 19.5523 8 19 8C18.4477 8 18 8.44772 18 9C18 9.55228 18.4477 10 19 10C19.5523 10 20 9.55228 20 9Z" stroke="white" stroke-width="2" stroke-linecap="round" stroke-linejoin="round"/>
</svg>
