<svg width="1440" height="900" viewBox="0 0 1440 900" fill="none" xmlns="http://www.w3.org/2000/svg">
<g filter="url(#filter0_d)">
<path fill-rule="evenodd" clip-rule="evenodd" d="M903.109 228.101C902.338 228.231 901.533 228.3 900.705 228.3C895.069 228.3 890.501 225.099 890.501 221.15C890.501 217.201 895.069 214 900.705 214C906.34 214 910.909 217.201 910.909 221.15C910.909 222.457 910.409 223.682 909.535 224.736L919.556 234.507C920.193 235.127 920.754 235.82 921.228 236.571L953.572 287.818C957.363 293.825 954.754 301.799 948.145 304.403L822.727 353.813C819.298 355.163 818.919 359.866 822.088 361.747L1001.77 468.445L995.963 473.017L818.568 367.676C810.47 362.867 811.437 350.85 820.2 347.398L945.618 297.988C948.204 296.969 949.225 293.849 947.742 291.498L915.397 240.251C915.212 239.957 914.992 239.686 914.743 239.443L903.109 228.101ZM905.049 220.632C905.049 222.062 902.965 223.22 900.394 223.22C897.822 223.22 895.738 222.062 895.738 220.632C895.738 219.203 897.822 218.044 900.394 218.044C902.965 218.044 905.049 219.203 905.049 220.632ZM983.603 546.347L965.277 560.571C959.143 565.331 959.508 574.711 965.992 578.98L1050.02 634.302L1049.64 625.803L969.784 573.221C967.247 571.551 967.104 567.881 969.504 566.018L984.09 554.697L983.603 546.347ZM1211.79 738.164L1211.44 746.193L1278.62 790.602C1279.87 791.932 1281.11 793.098 1282.21 794.068C1285.9 797.304 1291.32 797.304 1295.01 794.068C1297.29 792.065 1300.15 789.226 1302.45 785.825C1304.74 782.447 1306.67 778.252 1306.67 773.611C1306.67 768.821 1304.77 764.228 1301.38 760.842C1297.99 757.455 1293.4 755.553 1288.61 755.553C1283.82 755.553 1279.23 757.455 1275.84 760.842C1272.45 764.228 1270.55 768.821 1270.55 773.611C1270.55 774.863 1270.69 776.082 1270.94 777.262L1211.79 738.164ZM1290.46 788.883C1290.15 789.162 1289.79 789.36 1289.42 789.476L1283.13 785.316C1282.19 784.275 1281.28 783.148 1280.48 781.956C1278.6 779.194 1277.45 776.351 1277.45 773.611C1277.45 770.65 1278.62 767.811 1280.72 765.717C1282.81 763.623 1285.65 762.447 1288.61 762.447C1291.57 762.447 1294.41 763.623 1296.5 765.717C1298.6 767.811 1299.77 770.65 1299.77 773.611C1299.77 776.351 1298.62 779.194 1296.75 781.956C1294.89 784.696 1292.5 787.098 1290.46 788.883ZM1137.95 698.413V690.134L1149.62 697.89L1144.54 702.791L1137.95 698.413ZM1287.63 774.888C1287.63 774.344 1288.07 773.903 1288.61 773.903C1289.15 773.903 1289.6 774.344 1289.6 774.888C1289.6 775.432 1289.15 775.873 1288.61 775.873C1288.07 775.873 1287.63 775.432 1287.63 774.888ZM1288.61 769.963C1285.89 769.963 1283.69 772.168 1283.69 774.888C1283.69 777.608 1285.89 779.812 1288.61 779.812C1291.33 779.812 1293.54 777.608 1293.54 774.888C1293.54 772.168 1291.33 769.963 1288.61 769.963Z" fill="url(#paint0_linear)"/>
</g>
<defs>
<filter id="filter0_d" x="801.023" y="202" width="517.645" height="606.495" filterUnits="userSpaceOnUse" color-interpolation-filters="sRGB">
<feFlood flood-opacity="0" result="BackgroundImageFix"/>
<feColorMatrix in="SourceAlpha" type="matrix" values="0 0 0 0 0 0 0 0 0 0 0 0 0 0 0 0 0 0 127 0" result="hardAlpha"/>
<feOffset/>
<feGaussianBlur stdDeviation="6"/>
<feColorMatrix type="matrix" values="0 0 0 0 0.816667 0 0 0 0 1 0 0 0 0 0.856437 0 0 0 0.6 0"/>
<feBlend mode="normal" in2="BackgroundImageFix" result="effect1_dropShadow"/>
<feBlend mode="normal" in="SourceGraphic" in2="effect1_dropShadow" result="shape"/>
</filter>
<linearGradient id="paint0_linear" x1="813.023" y1="553.789" x2="1248.35" y2="713.12" gradientUnits="userSpaceOnUse">
<stop stop-color="#42E8FF"/>
<stop offset="1" stop-color="#42FF6B"/>
</linearGradient>
</defs>
</svg>
