<svg width="414" height="896" viewBox="0 0 414 896" fill="none" xmlns="http://www.w3.org/2000/svg">
<g clip-path="url(#clip0)">
<g filter="url(#filter0_d)">
<path fill-rule="evenodd" clip-rule="evenodd" d="M402.895 270.15C402.895 274.099 398.326 277.3 392.691 277.3C391.773 277.3 390.884 277.215 390.038 277.056L352.161 323.674C352.069 323.787 351.97 323.894 351.865 323.995L336.165 338.964L329.669 335.632L346.948 319.156L383.857 273.731C382.985 272.678 382.486 271.455 382.486 270.15C382.486 266.201 387.055 263 392.691 263C398.326 263 402.895 266.201 402.895 270.15ZM397.035 269.632C397.035 271.062 394.95 272.22 392.379 272.22C389.808 272.22 387.724 271.062 387.724 269.632C387.724 268.203 389.808 267.044 392.379 267.044C394.95 267.044 397.035 268.203 397.035 269.632ZM116.889 647.474L139.101 630.235L139.521 638.636L121.116 652.921C118.696 654.799 118.865 658.507 121.446 660.157L430.343 857.595L426.63 863.405L117.733 665.966C111.137 661.75 110.704 652.274 116.889 647.474ZM503.666 898.852L480.52 922.983L494.309 931.848L502.189 925.938L509.576 917.073L511.054 907.224L503.666 898.852ZM448.858 850.815C445.897 850.815 443.058 851.991 440.964 854.085C438.87 856.179 437.694 859.018 437.694 861.979C437.694 864.719 438.85 867.562 440.722 870.324C442.579 873.064 444.967 875.466 447.004 877.251C448.095 878.208 449.62 878.208 450.712 877.251C452.748 875.466 455.136 873.064 456.993 870.324C458.865 867.562 460.021 864.719 460.021 861.979C460.021 859.018 458.845 856.179 456.751 854.085C454.658 851.991 451.818 850.815 448.858 850.815ZM436.089 849.21C439.475 845.823 444.068 843.921 448.858 843.921C453.647 843.921 458.24 845.823 461.627 849.21C465.013 852.596 466.916 857.189 466.916 861.979C466.916 866.62 464.99 870.815 462.7 874.193C460.395 877.594 457.541 880.433 455.256 882.436C451.564 885.672 446.152 885.672 442.459 882.436C440.175 880.433 437.321 877.594 435.015 874.193C432.726 870.815 430.8 866.62 430.8 861.979C430.8 857.189 432.702 852.596 436.089 849.21ZM447.873 863.256C447.873 862.712 448.314 862.271 448.858 862.271C449.402 862.271 449.843 862.712 449.843 863.256C449.843 863.8 449.402 864.241 448.858 864.241C448.314 864.241 447.873 863.8 447.873 863.256ZM448.858 858.331C446.138 858.331 443.933 860.536 443.933 863.256C443.933 865.976 446.138 868.18 448.858 868.18C451.578 868.18 453.783 865.976 453.783 863.256C453.783 860.536 451.578 858.331 448.858 858.331Z" fill="url(#paint0_linear)"/>
</g>
<g filter="url(#filter1_d)">
<circle cx="325.501" cy="791.946" r="12.58" fill="url(#paint1_radial)"/>
<circle cx="325.501" cy="791.946" r="12.58" fill="url(#paint2_linear)"/>
<circle cx="325.501" cy="791.946" r="11.7937" stroke="#D67504" stroke-opacity="0.27" stroke-width="1.57249"/>
</g>
<g filter="url(#filter2_di)">
<path d="M324.603 787.05C324.169 785.82 322.82 785.174 321.59 785.608C320.842 785.871 320.314 786.473 320.108 787.178C319.506 786.759 318.716 786.622 317.971 786.885C316.74 787.318 316.094 788.668 316.528 789.898C316.59 790.073 316.672 790.234 316.767 790.383C317.754 792.195 320.607 793.469 322.334 793.485C323.668 792.389 325.089 789.607 324.721 787.577C324.702 787.4 324.664 787.224 324.603 787.05V787.05ZM326.399 787.05C326.833 785.82 328.182 785.174 329.412 785.608C330.159 785.871 330.688 786.473 330.894 787.178C331.497 786.759 332.286 786.622 333.032 786.885C334.261 787.318 334.908 788.668 334.474 789.898C334.412 790.073 334.33 790.234 334.235 790.383C333.247 792.195 330.395 793.469 328.668 793.485C327.334 792.389 325.913 789.607 326.281 787.577C326.3 787.4 326.338 787.224 326.399 787.05V787.05Z" fill="#DD573A"/>
</g>
<g filter="url(#filter3_di)">
<path d="M328.646 797.367V797.367C326.846 798.943 324.157 798.943 322.356 797.367V797.367" stroke="#823423" stroke-width="1.57249" stroke-linecap="round"/>
</g>
<g filter="url(#filter4_d)">
<circle cx="130.015" cy="668.499" r="12.58" fill="url(#paint3_radial)"/>
<circle cx="130.015" cy="668.499" r="12.58" fill="url(#paint4_linear)"/>
<circle cx="130.015" cy="668.499" r="11.7937" stroke="#D67504" stroke-opacity="0.27" stroke-width="1.57249"/>
</g>
<g filter="url(#filter5_di)">
<path d="M129.117 663.603C128.682 662.372 127.333 661.727 126.103 662.16C125.356 662.424 124.828 663.026 124.622 663.731C124.019 663.312 123.23 663.174 122.484 663.438C121.254 663.871 120.608 665.221 121.042 666.451C121.104 666.626 121.186 666.787 121.281 666.936C122.268 668.748 125.12 670.022 126.847 670.038C128.182 668.942 129.603 666.16 129.234 664.13C129.215 663.953 129.177 663.777 129.117 663.603V663.603ZM130.912 663.603C131.347 662.372 132.696 661.727 133.926 662.16C134.673 662.424 135.201 663.026 135.408 663.731C136.01 663.312 136.8 663.174 137.545 663.438C138.775 663.871 139.421 665.221 138.987 666.451C138.925 666.626 138.844 666.787 138.748 666.936C137.761 668.748 134.909 670.022 133.181 670.038C131.847 668.942 130.426 666.16 130.795 664.13C130.814 663.953 130.852 663.777 130.912 663.603V663.603Z" fill="#DD573A"/>
</g>
<g filter="url(#filter6_di)">
<path d="M133.16 673.92V673.92C131.359 675.495 128.67 675.495 126.87 673.92V673.92" stroke="#823423" stroke-width="1.57249" stroke-linecap="round"/>
</g>
</g>
<defs>
<filter id="filter0_d" x="88.8675" y="239.361" width="445.825" height="716.125" filterUnits="userSpaceOnUse" color-interpolation-filters="sRGB">
<feFlood flood-opacity="0" result="BackgroundImageFix"/>
<feColorMatrix in="SourceAlpha" type="matrix" values="0 0 0 0 0 0 0 0 0 0 0 0 0 0 0 0 0 0 127 0" result="hardAlpha"/>
<feOffset/>
<feGaussianBlur stdDeviation="11.8194"/>
<feColorMatrix type="matrix" values="0 0 0 0 0.816667 0 0 0 0 1 0 0 0 0 0.856437 0 0 0 0.6 0"/>
<feBlend mode="normal" in2="BackgroundImageFix" result="effect1_dropShadow"/>
<feBlend mode="normal" in="SourceGraphic" in2="effect1_dropShadow" result="shape"/>
</filter>
<filter id="filter1_d" x="309.776" y="779.366" width="31.4499" height="31.4499" filterUnits="userSpaceOnUse" color-interpolation-filters="sRGB">
<feFlood flood-opacity="0" result="BackgroundImageFix"/>
<feColorMatrix in="SourceAlpha" type="matrix" values="0 0 0 0 0 0 0 0 0 0 0 0 0 0 0 0 0 0 127 0" result="hardAlpha"/>
<feOffset dy="3.14499"/>
<feGaussianBlur stdDeviation="1.57249"/>
<feColorMatrix type="matrix" values="0 0 0 0 0.9 0 0 0 0 0.6165 0 0 0 0 0.19125 0 0 0 0.33 0"/>
<feBlend mode="normal" in2="BackgroundImageFix" result="effect1_dropShadow"/>
<feBlend mode="normal" in="SourceGraphic" in2="effect1_dropShadow" result="shape"/>
</filter>
<filter id="filter2_di" x="315.607" y="785.473" width="19.7881" height="9.58502" filterUnits="userSpaceOnUse" color-interpolation-filters="sRGB">
<feFlood flood-opacity="0" result="BackgroundImageFix"/>
<feColorMatrix in="SourceAlpha" type="matrix" values="0 0 0 0 0 0 0 0 0 0 0 0 0 0 0 0 0 0 127 0" result="hardAlpha"/>
<feOffset dy="0.786247"/>
<feGaussianBlur stdDeviation="0.393124"/>
<feColorMatrix type="matrix" values="0 0 0 0 1 0 0 0 0 1 0 0 0 0 1 0 0 0 0.35 0"/>
<feBlend mode="normal" in2="BackgroundImageFix" result="effect1_dropShadow"/>
<feBlend mode="normal" in="SourceGraphic" in2="effect1_dropShadow" result="shape"/>
<feColorMatrix in="SourceAlpha" type="matrix" values="0 0 0 0 0 0 0 0 0 0 0 0 0 0 0 0 0 0 127 0" result="hardAlpha"/>
<feOffset dy="0.786247"/>
<feGaussianBlur stdDeviation="0.786247"/>
<feComposite in2="hardAlpha" operator="arithmetic" k2="-1" k3="1"/>
<feColorMatrix type="matrix" values="0 0 0 0 0 0 0 0 0 0 0 0 0 0 0 0 0 0 0.25 0"/>
<feBlend mode="normal" in2="shape" result="effect2_innerShadow"/>
</filter>
<filter id="filter3_di" x="320.784" y="796.581" width="9.43499" height="4.32668" filterUnits="userSpaceOnUse" color-interpolation-filters="sRGB">
<feFlood flood-opacity="0" result="BackgroundImageFix"/>
<feColorMatrix in="SourceAlpha" type="matrix" values="0 0 0 0 0 0 0 0 0 0 0 0 0 0 0 0 0 0 127 0" result="hardAlpha"/>
<feOffset dy="0.786247"/>
<feGaussianBlur stdDeviation="0.393124"/>
<feColorMatrix type="matrix" values="0 0 0 0 1 0 0 0 0 1 0 0 0 0 1 0 0 0 0.35 0"/>
<feBlend mode="normal" in2="BackgroundImageFix" result="effect1_dropShadow"/>
<feBlend mode="normal" in="SourceGraphic" in2="effect1_dropShadow" result="shape"/>
<feColorMatrix in="SourceAlpha" type="matrix" values="0 0 0 0 0 0 0 0 0 0 0 0 0 0 0 0 0 0 127 0" result="hardAlpha"/>
<feOffset dy="0.786247"/>
<feGaussianBlur stdDeviation="0.786247"/>
<feComposite in2="hardAlpha" operator="arithmetic" k2="-1" k3="1"/>
<feColorMatrix type="matrix" values="0 0 0 0 0 0 0 0 0 0 0 0 0 0 0 0 0 0 0.25 0"/>
<feBlend mode="normal" in2="shape" result="effect2_innerShadow"/>
</filter>
<filter id="filter4_d" x="114.29" y="655.919" width="31.4499" height="31.4499" filterUnits="userSpaceOnUse" color-interpolation-filters="sRGB">
<feFlood flood-opacity="0" result="BackgroundImageFix"/>
<feColorMatrix in="SourceAlpha" type="matrix" values="0 0 0 0 0 0 0 0 0 0 0 0 0 0 0 0 0 0 127 0" result="hardAlpha"/>
<feOffset dy="3.14499"/>
<feGaussianBlur stdDeviation="1.57249"/>
<feColorMatrix type="matrix" values="0 0 0 0 0.9 0 0 0 0 0.6165 0 0 0 0 0.19125 0 0 0 0.33 0"/>
<feBlend mode="normal" in2="BackgroundImageFix" result="effect1_dropShadow"/>
<feBlend mode="normal" in="SourceGraphic" in2="effect1_dropShadow" result="shape"/>
</filter>
<filter id="filter5_di" x="120.12" y="662.025" width="19.7881" height="9.58502" filterUnits="userSpaceOnUse" color-interpolation-filters="sRGB">
<feFlood flood-opacity="0" result="BackgroundImageFix"/>
<feColorMatrix in="SourceAlpha" type="matrix" values="0 0 0 0 0 0 0 0 0 0 0 0 0 0 0 0 0 0 127 0" result="hardAlpha"/>
<feOffset dy="0.786247"/>
<feGaussianBlur stdDeviation="0.393124"/>
<feColorMatrix type="matrix" values="0 0 0 0 1 0 0 0 0 1 0 0 0 0 1 0 0 0 0.35 0"/>
<feBlend mode="normal" in2="BackgroundImageFix" result="effect1_dropShadow"/>
<feBlend mode="normal" in="SourceGraphic" in2="effect1_dropShadow" result="shape"/>
<feColorMatrix in="SourceAlpha" type="matrix" values="0 0 0 0 0 0 0 0 0 0 0 0 0 0 0 0 0 0 127 0" result="hardAlpha"/>
<feOffset dy="0.786247"/>
<feGaussianBlur stdDeviation="0.786247"/>
<feComposite in2="hardAlpha" operator="arithmetic" k2="-1" k3="1"/>
<feColorMatrix type="matrix" values="0 0 0 0 0 0 0 0 0 0 0 0 0 0 0 0 0 0 0.25 0"/>
<feBlend mode="normal" in2="shape" result="effect2_innerShadow"/>
</filter>
<filter id="filter6_di" x="125.297" y="673.133" width="9.43499" height="4.32668" filterUnits="userSpaceOnUse" color-interpolation-filters="sRGB">
<feFlood flood-opacity="0" result="BackgroundImageFix"/>
<feColorMatrix in="SourceAlpha" type="matrix" values="0 0 0 0 0 0 0 0 0 0 0 0 0 0 0 0 0 0 127 0" result="hardAlpha"/>
<feOffset dy="0.786247"/>
<feGaussianBlur stdDeviation="0.393124"/>
<feColorMatrix type="matrix" values="0 0 0 0 1 0 0 0 0 1 0 0 0 0 1 0 0 0 0.35 0"/>
<feBlend mode="normal" in2="BackgroundImageFix" result="effect1_dropShadow"/>
<feBlend mode="normal" in="SourceGraphic" in2="effect1_dropShadow" result="shape"/>
<feColorMatrix in="SourceAlpha" type="matrix" values="0 0 0 0 0 0 0 0 0 0 0 0 0 0 0 0 0 0 127 0" result="hardAlpha"/>
<feOffset dy="0.786247"/>
<feGaussianBlur stdDeviation="0.786247"/>
<feComposite in2="hardAlpha" operator="arithmetic" k2="-1" k3="1"/>
<feColorMatrix type="matrix" values="0 0 0 0 0 0 0 0 0 0 0 0 0 0 0 0 0 0 0.25 0"/>
<feBlend mode="normal" in2="shape" result="effect2_innerShadow"/>
</filter>
<linearGradient id="paint0_linear" x1="112.506" y1="653.161" x2="486.299" y2="749.354" gradientUnits="userSpaceOnUse">
<stop stop-color="#42E8FF"/>
<stop offset="1" stop-color="#42FF6B"/>
</linearGradient>
<radialGradient id="paint1_radial" cx="0" cy="0" r="1" gradientUnits="userSpaceOnUse" gradientTransform="translate(325.501 779.366) rotate(90) scale(25.1599)">
<stop stop-color="#EED919"/>
<stop offset="1" stop-color="#F1BE08"/>
</radialGradient>
<linearGradient id="paint2_linear" x1="325.501" y1="779.366" x2="325.501" y2="804.526" gradientUnits="userSpaceOnUse">
<stop stop-color="white" stop-opacity="0.52"/>
<stop offset="1" stop-color="white" stop-opacity="0"/>
<stop offset="1" stop-color="white" stop-opacity="0"/>
</linearGradient>
<radialGradient id="paint3_radial" cx="0" cy="0" r="1" gradientUnits="userSpaceOnUse" gradientTransform="translate(130.015 655.919) rotate(90) scale(25.1599)">
<stop stop-color="#EED919"/>
<stop offset="1" stop-color="#F1BE08"/>
</radialGradient>
<linearGradient id="paint4_linear" x1="130.015" y1="655.919" x2="130.015" y2="681.079" gradientUnits="userSpaceOnUse">
<stop stop-color="white" stop-opacity="0.52"/>
<stop offset="1" stop-color="white" stop-opacity="0"/>
<stop offset="1" stop-color="white" stop-opacity="0"/>
</linearGradient>
<clipPath id="clip0">
<rect width="414" height="896" fill="white"/>
</clipPath>
</defs>
</svg>
