<svg width="414" height="896" viewBox="0 0 414 896" fill="none" xmlns="http://www.w3.org/2000/svg">
<g filter="url(#filter0_d)">
<path fill-rule="evenodd" clip-rule="evenodd" d="M402.895 270.15C402.895 274.099 398.326 277.3 392.691 277.3C391.773 277.3 390.884 277.215 390.038 277.056L352.161 323.674C352.069 323.787 351.97 323.894 351.865 323.995L336.165 338.964L329.669 335.632L346.948 319.156L383.857 273.731C382.985 272.678 382.486 271.455 382.486 270.15C382.486 266.201 387.055 263 392.691 263C398.326 263 402.895 266.201 402.895 270.15ZM397.035 269.632C397.035 271.062 394.95 272.22 392.379 272.22C389.808 272.22 387.724 271.062 387.724 269.632C387.724 268.203 389.808 267.044 392.379 267.044C394.95 267.044 397.035 268.203 397.035 269.632ZM116.889 647.474L139.101 630.235L139.521 638.636L121.116 652.921C118.696 654.799 118.865 658.507 121.446 660.157L430.343 857.595L426.63 863.405L117.733 665.966C111.137 661.75 110.704 652.274 116.889 647.474ZM503.666 898.852L480.52 922.983L494.309 931.848L502.189 925.938L509.576 917.073L511.054 907.224L503.666 898.852ZM448.858 850.815C445.897 850.815 443.058 851.991 440.964 854.085C438.87 856.179 437.694 859.018 437.694 861.979C437.694 864.719 438.85 867.562 440.722 870.324C442.579 873.064 444.967 875.466 447.004 877.251C448.095 878.208 449.62 878.208 450.712 877.251C452.748 875.466 455.136 873.064 456.993 870.324C458.865 867.562 460.021 864.719 460.021 861.979C460.021 859.018 458.845 856.179 456.751 854.085C454.658 851.991 451.818 850.815 448.858 850.815ZM436.089 849.21C439.475 845.823 444.068 843.921 448.858 843.921C453.647 843.921 458.24 845.823 461.627 849.21C465.013 852.596 466.916 857.189 466.916 861.979C466.916 866.62 464.99 870.815 462.7 874.193C460.395 877.594 457.541 880.433 455.256 882.436C451.564 885.672 446.152 885.672 442.459 882.436C440.175 880.433 437.321 877.594 435.015 874.193C432.726 870.815 430.8 866.62 430.8 861.979C430.8 857.189 432.702 852.596 436.089 849.21ZM447.873 863.256C447.873 862.712 448.314 862.271 448.858 862.271C449.402 862.271 449.843 862.712 449.843 863.256C449.843 863.8 449.402 864.241 448.858 864.241C448.314 864.241 447.873 863.8 447.873 863.256ZM448.858 858.331C446.138 858.331 443.933 860.536 443.933 863.256C443.933 865.976 446.138 868.18 448.858 868.18C451.578 868.18 453.783 865.976 453.783 863.256C453.783 860.536 451.578 858.331 448.858 858.331Z" fill="url(#paint0_linear)"/>
</g>
<defs>
<filter id="filter0_d" x="88.8675" y="239.361" width="445.825" height="716.125" filterUnits="userSpaceOnUse" color-interpolation-filters="sRGB">
<feFlood flood-opacity="0" result="BackgroundImageFix"/>
<feColorMatrix in="SourceAlpha" type="matrix" values="0 0 0 0 0 0 0 0 0 0 0 0 0 0 0 0 0 0 127 0" result="hardAlpha"/>
<feOffset/>
<feGaussianBlur stdDeviation="11.8194"/>
<feColorMatrix type="matrix" values="0 0 0 0 0.816667 0 0 0 0 1 0 0 0 0 0.856437 0 0 0 0.6 0"/>
<feBlend mode="normal" in2="BackgroundImageFix" result="effect1_dropShadow"/>
<feBlend mode="normal" in="SourceGraphic" in2="effect1_dropShadow" result="shape"/>
</filter>
<linearGradient id="paint0_linear" x1="112.506" y1="653.161" x2="486.299" y2="749.354" gradientUnits="userSpaceOnUse">
<stop stop-color="#42E8FF"/>
<stop offset="1" stop-color="#42FF6B"/>
</linearGradient>
</defs>
</svg>
