<svg width="1440" height="900" viewBox="0 0 1440 900" fill="none" xmlns="http://www.w3.org/2000/svg">
<g filter="url(#filter0_d)">
<circle cx="975.015" cy="582.946" r="12.58" fill="url(#paint0_radial)"/>
<circle cx="975.015" cy="582.946" r="12.58" fill="url(#paint1_linear)"/>
<circle cx="975.015" cy="582.946" r="11.7937" stroke="#D67504" stroke-opacity="0.27" stroke-width="1.57249"/>
</g>
<g filter="url(#filter1_di)">
<path d="M974.117 578.05C973.682 576.82 972.333 576.174 971.103 576.608C970.356 576.871 969.828 577.473 969.622 578.178C969.019 577.759 968.23 577.622 967.484 577.885C966.254 578.318 965.608 579.668 966.042 580.898C966.104 581.073 966.186 581.234 966.281 581.383C967.268 583.195 970.12 584.469 971.847 584.485C973.182 583.389 974.603 580.607 974.234 578.577C974.215 578.4 974.177 578.224 974.117 578.05V578.05ZM975.912 578.05C976.347 576.82 977.696 576.174 978.926 576.608C979.673 576.871 980.201 577.473 980.408 578.178C981.01 577.759 981.8 577.622 982.545 577.885C983.775 578.318 984.421 579.668 983.987 580.898C983.925 581.073 983.844 581.234 983.748 581.383C982.761 583.195 979.909 584.469 978.181 584.485C976.847 583.389 975.426 580.607 975.795 578.577C975.814 578.4 975.852 578.224 975.912 578.05V578.05Z" fill="#DD573A"/>
</g>
<g filter="url(#filter2_di)">
<path d="M978.16 588.367V588.367C976.359 589.942 973.67 589.942 971.87 588.367V588.367" stroke="#823423" stroke-width="1.57249" stroke-linecap="round"/>
</g>
<defs>
<filter id="filter0_d" x="959.29" y="570.366" width="31.4499" height="31.4499" filterUnits="userSpaceOnUse" color-interpolation-filters="sRGB">
<feFlood flood-opacity="0" result="BackgroundImageFix"/>
<feColorMatrix in="SourceAlpha" type="matrix" values="0 0 0 0 0 0 0 0 0 0 0 0 0 0 0 0 0 0 127 0" result="hardAlpha"/>
<feOffset dy="3.14499"/>
<feGaussianBlur stdDeviation="1.57249"/>
<feColorMatrix type="matrix" values="0 0 0 0 0.9 0 0 0 0 0.6165 0 0 0 0 0.19125 0 0 0 0.33 0"/>
<feBlend mode="normal" in2="BackgroundImageFix" result="effect1_dropShadow"/>
<feBlend mode="normal" in="SourceGraphic" in2="effect1_dropShadow" result="shape"/>
</filter>
<filter id="filter1_di" x="965.12" y="576.473" width="19.7881" height="9.58502" filterUnits="userSpaceOnUse" color-interpolation-filters="sRGB">
<feFlood flood-opacity="0" result="BackgroundImageFix"/>
<feColorMatrix in="SourceAlpha" type="matrix" values="0 0 0 0 0 0 0 0 0 0 0 0 0 0 0 0 0 0 127 0" result="hardAlpha"/>
<feOffset dy="0.786247"/>
<feGaussianBlur stdDeviation="0.393124"/>
<feColorMatrix type="matrix" values="0 0 0 0 1 0 0 0 0 1 0 0 0 0 1 0 0 0 0.35 0"/>
<feBlend mode="normal" in2="BackgroundImageFix" result="effect1_dropShadow"/>
<feBlend mode="normal" in="SourceGraphic" in2="effect1_dropShadow" result="shape"/>
<feColorMatrix in="SourceAlpha" type="matrix" values="0 0 0 0 0 0 0 0 0 0 0 0 0 0 0 0 0 0 127 0" result="hardAlpha"/>
<feOffset dy="0.786247"/>
<feGaussianBlur stdDeviation="0.786247"/>
<feComposite in2="hardAlpha" operator="arithmetic" k2="-1" k3="1"/>
<feColorMatrix type="matrix" values="0 0 0 0 0 0 0 0 0 0 0 0 0 0 0 0 0 0 0.25 0"/>
<feBlend mode="normal" in2="shape" result="effect2_innerShadow"/>
</filter>
<filter id="filter2_di" x="970.297" y="587.581" width="9.43499" height="4.32668" filterUnits="userSpaceOnUse" color-interpolation-filters="sRGB">
<feFlood flood-opacity="0" result="BackgroundImageFix"/>
<feColorMatrix in="SourceAlpha" type="matrix" values="0 0 0 0 0 0 0 0 0 0 0 0 0 0 0 0 0 0 127 0" result="hardAlpha"/>
<feOffset dy="0.786247"/>
<feGaussianBlur stdDeviation="0.393124"/>
<feColorMatrix type="matrix" values="0 0 0 0 1 0 0 0 0 1 0 0 0 0 1 0 0 0 0.35 0"/>
<feBlend mode="normal" in2="BackgroundImageFix" result="effect1_dropShadow"/>
<feBlend mode="normal" in="SourceGraphic" in2="effect1_dropShadow" result="shape"/>
<feColorMatrix in="SourceAlpha" type="matrix" values="0 0 0 0 0 0 0 0 0 0 0 0 0 0 0 0 0 0 127 0" result="hardAlpha"/>
<feOffset dy="0.786247"/>
<feGaussianBlur stdDeviation="0.786247"/>
<feComposite in2="hardAlpha" operator="arithmetic" k2="-1" k3="1"/>
<feColorMatrix type="matrix" values="0 0 0 0 0 0 0 0 0 0 0 0 0 0 0 0 0 0 0.25 0"/>
<feBlend mode="normal" in2="shape" result="effect2_innerShadow"/>
</filter>
<radialGradient id="paint0_radial" cx="0" cy="0" r="1" gradientUnits="userSpaceOnUse" gradientTransform="translate(975.015 570.366) rotate(90) scale(25.1599)">
<stop stop-color="#EED919"/>
<stop offset="1" stop-color="#F1BE08"/>
</radialGradient>
<linearGradient id="paint1_linear" x1="975.015" y1="570.366" x2="975.015" y2="595.526" gradientUnits="userSpaceOnUse">
<stop stop-color="white" stop-opacity="0.52"/>
<stop offset="1" stop-color="white" stop-opacity="0"/>
<stop offset="1" stop-color="white" stop-opacity="0"/>
</linearGradient>
</defs>
</svg>
