<svg width="414" height="896" viewBox="0 0 414 896" fill="none" xmlns="http://www.w3.org/2000/svg">
<g filter="url(#filter0_d)">
<circle cx="130.015" cy="668.499" r="12.58" fill="url(#paint0_radial)"/>
<circle cx="130.015" cy="668.499" r="12.58" fill="url(#paint1_linear)"/>
<circle cx="130.015" cy="668.499" r="11.7937" stroke="#D67504" stroke-opacity="0.27" stroke-width="1.57249"/>
</g>
<g filter="url(#filter1_di)">
<path d="M129.117 663.603C128.682 662.373 127.333 661.727 126.103 662.16C125.356 662.424 124.828 663.026 124.622 663.731C124.019 663.312 123.23 663.174 122.484 663.438C121.254 663.871 120.608 665.221 121.042 666.451C121.104 666.626 121.186 666.787 121.281 666.936C122.268 668.748 125.12 670.022 126.847 670.038C128.182 668.942 129.603 666.16 129.234 664.13C129.215 663.953 129.177 663.777 129.117 663.603ZM130.912 663.603C131.347 662.373 132.696 661.727 133.926 662.16C134.673 662.424 135.201 663.026 135.408 663.731C136.01 663.312 136.8 663.174 137.545 663.438C138.775 663.871 139.421 665.221 138.987 666.451C138.925 666.626 138.844 666.787 138.748 666.936C137.761 668.748 134.909 670.022 133.181 670.038C131.847 668.942 130.426 666.16 130.795 664.13C130.814 663.953 130.852 663.777 130.912 663.603Z" fill="#DD573A"/>
</g>
<g filter="url(#filter2_di)">
<path d="M133.16 673.92V673.92C131.359 675.495 128.67 675.495 126.87 673.92V673.92" stroke="#823423" stroke-width="1.57249" stroke-linecap="round"/>
</g>
<defs>
<filter id="filter0_d" x="114.29" y="655.919" width="31.4499" height="31.4499" filterUnits="userSpaceOnUse" color-interpolation-filters="sRGB">
<feFlood flood-opacity="0" result="BackgroundImageFix"/>
<feColorMatrix in="SourceAlpha" type="matrix" values="0 0 0 0 0 0 0 0 0 0 0 0 0 0 0 0 0 0 127 0" result="hardAlpha"/>
<feOffset dy="3.14499"/>
<feGaussianBlur stdDeviation="1.57249"/>
<feColorMatrix type="matrix" values="0 0 0 0 0.9 0 0 0 0 0.6165 0 0 0 0 0.19125 0 0 0 0.33 0"/>
<feBlend mode="normal" in2="BackgroundImageFix" result="effect1_dropShadow"/>
<feBlend mode="normal" in="SourceGraphic" in2="effect1_dropShadow" result="shape"/>
</filter>
<filter id="filter1_di" x="120.12" y="662.026" width="19.7881" height="9.58502" filterUnits="userSpaceOnUse" color-interpolation-filters="sRGB">
<feFlood flood-opacity="0" result="BackgroundImageFix"/>
<feColorMatrix in="SourceAlpha" type="matrix" values="0 0 0 0 0 0 0 0 0 0 0 0 0 0 0 0 0 0 127 0" result="hardAlpha"/>
<feOffset dy="0.786247"/>
<feGaussianBlur stdDeviation="0.393124"/>
<feColorMatrix type="matrix" values="0 0 0 0 1 0 0 0 0 1 0 0 0 0 1 0 0 0 0.35 0"/>
<feBlend mode="normal" in2="BackgroundImageFix" result="effect1_dropShadow"/>
<feBlend mode="normal" in="SourceGraphic" in2="effect1_dropShadow" result="shape"/>
<feColorMatrix in="SourceAlpha" type="matrix" values="0 0 0 0 0 0 0 0 0 0 0 0 0 0 0 0 0 0 127 0" result="hardAlpha"/>
<feOffset dy="0.786247"/>
<feGaussianBlur stdDeviation="0.786247"/>
<feComposite in2="hardAlpha" operator="arithmetic" k2="-1" k3="1"/>
<feColorMatrix type="matrix" values="0 0 0 0 0 0 0 0 0 0 0 0 0 0 0 0 0 0 0.25 0"/>
<feBlend mode="normal" in2="shape" result="effect2_innerShadow"/>
</filter>
<filter id="filter2_di" x="125.297" y="673.133" width="9.43499" height="4.32668" filterUnits="userSpaceOnUse" color-interpolation-filters="sRGB">
<feFlood flood-opacity="0" result="BackgroundImageFix"/>
<feColorMatrix in="SourceAlpha" type="matrix" values="0 0 0 0 0 0 0 0 0 0 0 0 0 0 0 0 0 0 127 0" result="hardAlpha"/>
<feOffset dy="0.786247"/>
<feGaussianBlur stdDeviation="0.393124"/>
<feColorMatrix type="matrix" values="0 0 0 0 1 0 0 0 0 1 0 0 0 0 1 0 0 0 0.35 0"/>
<feBlend mode="normal" in2="BackgroundImageFix" result="effect1_dropShadow"/>
<feBlend mode="normal" in="SourceGraphic" in2="effect1_dropShadow" result="shape"/>
<feColorMatrix in="SourceAlpha" type="matrix" values="0 0 0 0 0 0 0 0 0 0 0 0 0 0 0 0 0 0 127 0" result="hardAlpha"/>
<feOffset dy="0.786247"/>
<feGaussianBlur stdDeviation="0.786247"/>
<feComposite in2="hardAlpha" operator="arithmetic" k2="-1" k3="1"/>
<feColorMatrix type="matrix" values="0 0 0 0 0 0 0 0 0 0 0 0 0 0 0 0 0 0 0.25 0"/>
<feBlend mode="normal" in2="shape" result="effect2_innerShadow"/>
</filter>
<radialGradient id="paint0_radial" cx="0" cy="0" r="1" gradientUnits="userSpaceOnUse" gradientTransform="translate(130.015 655.919) rotate(90) scale(25.1599)">
<stop stop-color="#EED919"/>
<stop offset="1" stop-color="#F1BE08"/>
</radialGradient>
<linearGradient id="paint1_linear" x1="130.015" y1="655.919" x2="130.015" y2="681.079" gradientUnits="userSpaceOnUse">
<stop stop-color="white" stop-opacity="0.52"/>
<stop offset="1" stop-color="white" stop-opacity="0"/>
<stop offset="1" stop-color="white" stop-opacity="0"/>
</linearGradient>
</defs>
</svg>
